<?xml version="1.0" encoding="UTF-8"?>
<svg id="OBJECTS" xmlns="http://www.w3.org/2000/svg" viewBox="0 0 175.69 260.08">
  <defs>
    <style>
      .cls-1 {
        fill: #e22454;
      }
    </style>
  </defs>
  <path class="cls-1" d="M87.85,0C39.33,0,0,39.33,0,87.85c0,3.7,.23,7.35,.68,10.93-.15-24.33,8.49-58.21,34.79-62.58,.03-.01,.07-.02,.1-.04,.38-.14,.75-.26,1.22-.16-.02,.45-.25,.78-.43,1.11-1.47,2.68-2.2,5.59-2.81,8.55-.61,2.96-.91,5.96-1.15,8.95-.2,2.4-.11,4.82,.14,7.23,.36,3.4,.89,6.77,1.72,10.08,.15,.58,.28,1.17,.65,1.77,.07-.96-.12-1.81-.26-2.66-.46-2.75-.66-5.5-.58-8.28,.06-1.89,.08-3.78,.17-5.67,.26-5.79,2.17-10.99,5.58-15.65,2.54-3.48,5.96-5.54,10.16-6.38,2.17-.43,4.36-.69,6.58-.74,3.42-.07,6.84,0,10.23,.51,3.3,.49,6.58,1.09,9.79,2.01,2.63,.75,5.25,1.52,7.78,2.56,.66,.27,1.32,.58,1.91,.84,.2,.36,.1,.62-.03,.87-.21,.39-.41,.79-.66,1.15-1.71,2.5-2.96,5.24-4.28,7.95-1.47,3-2.53,6.16-3.62,9.32-.37,1.06-.71,2.13-1.06,3.2-.08,.25-.18,.51-.12,.78,.43-.32,.53-.84,.72-1.29,1.25-2.92,2.49-5.84,4.11-8.58,1.62-2.74,3.36-5.39,5.58-7.7,1.13-1.18,2.47-2.04,3.9-2.79,.62-.33,1.19-.34,1.79,.08,2.74,1.95,3.65,4.07,3.36,7.11-.08,.88-.33,1.74-.67,2.56-.21,.51-.26,.99-.11,1.52,.78,2.72,.99,5.53,1.34,8.32,.39,3.03,.68,6.07,.89,9.12,.17,2.4,.42,4.81,.36,7.23-.1,3.78,1.07,7.2,3,10.39,.92,1.51,1.9,2.99,2.87,4.46,1.41,2.14,.96,3.89-.92,5.52-.64,.56-1.45,.86-2.2,1.24-.76,.37-1.52,.74-2.28,1.09-1.43,.65-2.02,1.76-1.86,3.3,.07,.72,.13,1.44,.22,2.16,.05,.36,.09,.71-.03,1.07-.26,.76-.65,1.04-1.46,.89-.93-.18-1.89-.3-2.73-.81-.18,.36,.04,.45,.17,.55,.81,.62,1.69,1.13,2.69,1.27,.77,.11,1.09,.53,1.3,1.21,.41,1.34,.19,1.97-1,2.75-.1,.07-.2,.14-.31,.19-1.36,.66-1.95,1.74-2.07,3.26-.16,1.96-.59,3.89-1.7,5.59-.9,1.38-2.1,2.26-3.7,2.69-2.87,.76-5.68,.38-8.44-.45-2.5-.76-4.9-1.8-7.26-2.93-1.49-.71-2.8-1.74-4.09-2.76-4.66-3.72-8.95-7.83-12.82-12.38-2.45-2.88-4.83-5.81-7.05-8.87-.95-1.31-1.75-2.69-2.51-4.11-.7-1.31-1.4-2.62-2.11-3.93-.12-.23-.17-.52-.54-.64,.03,.72,.25,1.37,.49,2,1.16,3.09,2.53,6.07,4.34,8.86,3.27,5.04,6.88,9.81,10.88,14.28,2.04,2.28,4.17,4.47,6.41,6.55,.69,.64,1.2,1.35,1.6,2.22,2.39,5.32,4.91,10.57,7.92,15.57,.91,1.52,1.93,2.96,3.11,4.29,.78,.88,1.65,1.65,2.59,2.34,.23,.17,.46,.33,.67,.52,.18,.16,.35,.35,.23,.62-.12,.27-.37,.27-.62,.27-.93-.02-1.84-.19-2.74-.39-5.09-1.17-9.84-3.2-14.36-5.8-4.57-2.63-8.64-5.87-12.06-9.9-.13-.15-.24-.32-.45-.38-.02-.26-.19-.42-.42-.58-.1,.35,.09,.52,.33,.67,0,.26,.17,.45,.3,.64,2.08,2.97,4.33,5.8,7.02,8.25,2.43,2.22,5.23,3.88,8.14,5.34,3.73,1.88,7.51,3.65,11.27,5.48,4.16,2.02,8.23,4.2,12.05,6.83,2.96,2.04,5.71,4.31,8.08,7.03,.95,1.09,1.8,2.27,2.5,3.54,.11,.2,.2,.42,.29,.62-.38,.44-.87,.51-1.33,.64-.19,.05-.39,.1-.59,.15-10.29,3.98-25.14,4.76-41.57,.66,9.6,3.6,19.98,5.57,30.84,5.57,48.52,0,87.85-39.33,87.85-87.85S136.36,0,87.85,0Zm19.57,22.84c-2.52,.4-4.5,2.38-4.9,4.9l-.48,3.05-.48-3.05c-.4-2.52-2.38-4.5-4.9-4.9l-3.05-.48,3.05-.48c2.52-.4,4.5-2.38,4.9-4.9l.48-3.05,.48,3.05c.4,2.52,2.38,4.5,4.9,4.9l3.05,.48-3.05,.48Zm26.92,94.32c-3.86,.61-6.89,3.64-7.5,7.5l-.74,4.67-.74-4.67c-.61-3.86-3.64-6.89-7.5-7.5l-4.67-.74,4.67-.74c3.86-.61,6.89-3.64,7.5-7.5l.74-4.67,.74,4.67c.61,3.86,3.64,6.89,7.5,7.5l4.67,.74-4.67,.74Zm3.19-45.97c-8.92,3.78-19.22-.39-23-9.32-3.78-8.92,.39-19.22,9.32-23,.33-.14,.66-.26,.99-.38-3.3,3.98-4.32,9.61-2.17,14.69,3.07,7.26,11.45,10.65,18.71,7.58,3.01-1.28,5.36-3.47,6.85-6.11,.15,6.97-3.89,13.65-10.7,16.53Zm17.29,25.19l-.48,3.05-.48-3.05c-.4-2.52-2.38-4.5-4.9-4.9l-3.05-.48,3.05-.48c2.52-.4,4.5-2.38,4.9-4.9l.48-3.05,.48,3.05c.4,2.52,2.38,4.5,4.9,4.9l3.05,.48-3.05,.48c-2.52,.4-4.5,2.38-4.9,4.9Zm-70.4-15.38c1.51,.23,2.91,.9,4.4,1.17,1.42,.26,2.85,.48,4.22-.27,.14-.08,.31-.07,.58,.16-.31,1.03-.97,1.7-2,2.01-.89,.27-1.76,.12-2.57-.26-.72-.34-1.43-.73-2.1-1.17-1.01-.65-1.98-1.35-3.27-1.54,.29-.26,.51-.13,.74-.1Zm4.1-6.96c-.51,.2-.99,.49-1.53,.51-.25-.4,.02-.6,.19-.79,1.24-1.38,2.71-2.37,4.6-2.63,1.49-.21,3.26,.73,3.87,2.1,.14,.3,.21,.61-.18,.9-.37-.14-.77-.32-1.18-.44-1.97-.59-3.89-.39-5.77,.36Z"/>
</svg>